<svg width="59.036" height="70" viewBox="0 0 70 83" fill="none" xmlns="http://www.w3.org/2000/svg">
<path d="M70 26.5613L67.4674 19.6859L69.2276 15.7398C69.4535 15.2301 69.3432 14.6363 68.9517 14.237L64.1649 9.39762C63.1376 8.35445 61.8349 7.62475 60.4088 7.29356C58.9826 6.96237 57.4917 7.04334 56.1098 7.52702L54.7962 7.99204L47.4846 0.0683106L35 0L22.5154 0.0972094L15.2117 8.084L13.9112 7.62423C12.5203 7.13488 11.0187 7.05243 9.58264 7.38655C8.14655 7.72068 6.83557 8.45752 5.80356 9.51059L0.901141 14.4419C0.748181 14.5963 0.645498 14.7933 0.60658 15.0071C0.567662 15.221 0.59433 15.4415 0.683081 15.6399L2.52214 19.7384L0 26.6086L9.05607 61.0438C9.91255 64.2963 11.8803 67.1468 14.6206 69.0989L32.5304 81.2367C33.2337 81.799 34.1074 82.1054 35.0079 82.1054C35.9084 82.1054 36.7821 81.799 37.4854 81.2367L55.3847 69.0805C58.1223 67.1284 60.1137 64.2779 60.9413 61.0254L68.3291 32.7774L70 26.5613Z" fill="url(#paint0_linear_411_11512)"/>
<path d="M37.044 50.8903C36.5706 50.6782 36.0823 50.5011 35.583 50.3606H34.703C34.2037 50.5011 33.7154 50.6782 33.242 50.8903L31.0268 51.8113L28.5255 52.9619L24.4516 55.0848C24.1501 55.1823 23.9385 55.4542 23.9167 55.7711C23.8949 56.0879 24.068 56.3868 24.3528 56.5227L27.8892 59.0061C28.642 59.5453 29.3677 60.1216 30.0634 60.7326L31.0588 61.5895L33.142 63.4135L34.0861 64.2473C34.3782 64.4892 34.7457 64.6216 35.1251 64.6216C35.5044 64.6216 35.8719 64.4892 36.1641 64.2473L40.2354 60.6903L42.416 58.9638L45.9538 56.4317C46.0944 56.365 46.2115 56.2573 46.2897 56.1227C46.3678 55.9881 46.4033 55.833 46.3915 55.6778C46.3797 55.5226 46.3211 55.3747 46.2235 55.2535C46.1259 55.1322 45.9938 55.0435 45.8447 54.9989L41.7785 52.9465L39.2644 51.7959L37.044 50.8903ZM62.1275 28.0964L62.2558 27.7283C62.2616 27.2358 62.2308 26.7436 62.1635 26.2557C61.821 25.3835 61.3938 24.5548 60.8512 23.7801L58.55 20.4027L56.9107 18.1759L53.8271 14.3277C53.5449 13.9519 53.2396 13.594 52.9125 13.258H52.8484L51.4784 13.5106L44.7005 14.8165C44.0143 14.8485 43.328 14.7485 42.6815 14.5214L38.9591 13.3195L36.2949 12.5832C35.5129 12.5002 34.7244 12.5002 33.9424 12.5832L31.2782 13.3272L27.5557 14.5355C26.9076 14.7613 26.2224 14.8614 25.5367 14.8306L18.7666 13.5478L17.3966 13.2952H17.3325C17.0041 13.6312 16.6988 13.9878 16.4179 14.3649L13.3394 18.2131C12.7658 18.935 12.219 19.6778 11.7001 20.4399L9.39886 23.8173L8.31112 25.6298C8.11358 26.3263 8.00968 27.0459 8.0007 27.7719L8.12897 28.14C8.18413 28.3761 8.25725 28.6095 8.3419 28.8366L10.1595 30.9248L18.215 39.4857C18.4828 39.7976 18.6619 40.1757 18.7336 40.5805C18.8054 40.9853 18.7671 41.4019 18.6229 41.7869L17.2683 44.8962C16.9687 45.7239 16.9466 46.6267 17.2055 47.468L17.4697 48.1928C17.9021 49.3702 18.6434 50.4096 19.6157 51.202L20.8818 52.2321C21.5488 52.7144 22.421 52.8182 23.1829 52.5078L27.6827 50.3619C28.5094 49.9492 29.2823 49.4366 29.9839 48.8354L33.5858 45.585C33.7294 45.4557 33.8455 45.2987 33.927 45.1235C34.0086 44.9483 34.0539 44.7584 34.0604 44.5652C34.0672 44.3721 34.0353 44.1795 33.9665 43.9989C33.8978 43.8183 33.7937 43.6532 33.6602 43.5134L25.5303 38.0362C25.2228 37.8177 25.0038 37.4962 24.9129 37.13C24.8221 36.7638 24.8655 36.3772 25.0352 36.0403L28.1881 30.1141C28.3673 29.7515 28.4732 29.357 28.4998 28.9533C28.5265 28.5497 28.4733 28.1447 28.3433 27.7616C27.9521 27.0304 27.3198 26.4571 26.5539 26.139L16.6693 22.4191C15.9561 22.1626 15.9959 21.8419 16.7501 21.7983L22.5557 21.2211C23.4662 21.1637 24.3801 21.245 25.2661 21.4622L30.3174 22.8732C31.0588 23.0964 31.5232 23.8352 31.3988 24.5997L29.4144 35.4387C29.2818 36.039 29.2489 36.6569 29.3169 37.2679C29.3977 37.527 30.0763 37.8451 30.8177 38.0272L33.8962 38.6686C34.79 38.8329 35.7063 38.8329 36.6002 38.6686L39.367 38.0272C40.111 37.8605 40.7818 37.509 40.8678 37.2499C40.9339 36.6387 40.8992 36.0207 40.7652 35.4208L38.7693 24.5818C38.711 24.212 38.7883 23.8336 38.987 23.5163C39.1857 23.199 39.4924 22.9642 39.8506 22.8552L44.9019 21.4404C45.7878 21.2224 46.7018 21.1411 47.6123 21.1993L53.4179 21.7406C54.1773 21.8098 54.2132 22.092 53.5038 22.3614L43.6269 26.1069C42.8587 26.4213 42.2253 26.9956 41.8375 27.7296C41.5761 28.5033 41.6314 29.349 41.9914 30.0821L45.1495 36.0082C45.3192 36.3452 45.3626 36.7318 45.2718 37.0979C45.1809 37.4641 44.9619 37.7856 44.6544 38.0041L36.5309 43.4942C36.3978 43.634 36.2939 43.7991 36.2254 43.9797C36.157 44.1602 36.1253 44.3526 36.1322 44.5456C36.1391 44.7386 36.1845 44.9283 36.2658 45.1034C36.347 45.2786 36.4625 45.4358 36.6053 45.5658L40.2123 48.8162C40.9151 49.4136 41.6878 49.9236 42.5135 50.3349L47.0133 52.4771C47.7778 52.7849 48.6475 52.6797 49.3145 52.1949L50.5805 51.1597C51.5541 50.3663 52.2955 49.3249 52.7265 48.1453L52.9907 47.4206C53.2496 46.5792 53.2276 45.6764 52.9279 44.8487L51.6041 41.724C51.4612 41.3389 51.4237 40.9225 51.4954 40.518C51.5671 40.1135 51.7455 39.7354 52.012 39.4228L60.0675 30.8504L61.88 28.7622C61.9771 28.5411 62.0598 28.314 62.1275 28.0823V28.0964Z" fill="white"/>
<defs>
<linearGradient id="paint0_linear_411_11512" x1="0.0210179" y1="41.0505" x2="69.9764" y2="41.0505" gradientUnits="userSpaceOnUse">
<stop stop-color="#F1562B"/>
<stop offset="0.3" stop-color="#F1542B"/>
<stop offset="0.41" stop-color="#F04D2A"/>
<stop offset="0.49" stop-color="#EF4229"/>
<stop offset="0.5" stop-color="#EF4029"/>
<stop offset="0.56" stop-color="#E83E28"/>
<stop offset="0.67" stop-color="#E13C26"/>
<stop offset="1" stop-color="#DF3C26"/>
</linearGradient>
</defs>
</svg>
