<svg width="70" height="70" viewBox="0 0 70 70" fill="none" xmlns="http://www.w3.org/2000/svg">
<path d="M35.0001 35.0001L50.1559 43.7499L35.0001 70C54.3301 70 70 54.33 70 35.0001C70 28.6231 68.2861 22.6496 65.3062 17.4999H34.9998L35.0001 35.0001Z" fill="#FBBF12"/>
<path d="M34.9994 0C22.0449 0 10.743 7.04307 4.69098 17.5043L19.8437 43.7502L34.9994 35.0004V17.5002H65.3059C59.2528 7.04152 47.9524 0 34.9994 0Z" fill="url(#paint0_linear_411_11502)"/>
<path d="M0.000206693 35.0001C0.000206693 54.3301 15.6696 70 35.0001 70L50.1559 43.7499L35.0001 35.0001L19.8443 43.7499L4.69163 17.504C1.71333 22.6523 0 28.6236 0 34.9996" fill="url(#paint1_linear_411_11502)"/>
<path d="M52.4997 35.0001C52.4997 44.6651 44.6645 52.5003 34.9995 52.5003C25.3345 52.5003 17.4993 44.6651 17.4993 35.0001C17.4993 25.3351 25.3345 17.4999 34.9995 17.4999C44.6645 17.4999 52.4997 25.3351 52.4997 35.0001Z" fill="white"/>
<path d="M49.2185 34.9996C49.2185 42.8524 42.8524 49.2185 34.9996 49.2185C27.1468 49.2185 20.7806 42.8524 20.7806 34.9996C20.7806 27.1468 27.1468 20.7806 34.9996 20.7806C42.8524 20.7806 49.2185 27.1468 49.2185 34.9996Z" fill="#1A73E8"/>
<defs>
<linearGradient id="paint0_linear_411_11502" x1="15.191" y1="21.8749" x2="46.8595" y2="21.8749" gradientUnits="userSpaceOnUse">
<stop stop-color="#DB3328"/>
<stop offset="1" stop-color="#E53D30"/>
</linearGradient>
<linearGradient id="paint1_linear_411_11502" x1="13.3381" y1="23.7363" x2="26.3174" y2="46.2173" gradientUnits="userSpaceOnUse">
<stop stop-color="#32A651"/>
<stop offset="1" stop-color="#279847"/>
</linearGradient>
</defs>
</svg>
