<svg width="70" height="70" viewBox="0 0 70 70" fill="none" xmlns="http://www.w3.org/2000/svg">
<path d="M23.4813 54.7201C19.6157 50.1493 17.1082 43.4017 16.9341 35.8184C16.9341 35.801 16.9341 34.1903 16.9341 34.1729C17.1082 26.5983 19.607 19.842 23.4813 15.2711C28.505 8.75 35.9664 4.61443 44.2985 4.61443C49.4266 4.61443 54.2239 6.18159 58.3246 8.89801C52.1691 3.39552 44.0373 0.0348259 35.1306 0C35.0871 0 35.0435 0 35 0C15.6716 0 0 15.6716 0 35C0 54.3284 14.7749 69.0858 33.3284 69.9565C33.8769 69.9826 34.4341 70 34.9913 70C43.9502 70 52.1256 66.6306 58.3159 61.0933C54.2152 63.8184 49.4179 65.3769 44.2898 65.3769C35.9577 65.3769 28.4876 61.2413 23.4726 54.7201H23.4813Z" fill="url(#paint0_linear_411_11494)"/>
<path d="M23.4814 15.2798C26.6941 11.4924 30.8384 9.20265 35.3745 9.20265C45.561 9.20265 53.8235 20.7561 53.8235 34.9999C53.8235 49.2437 45.561 60.7972 35.3745 60.7972C30.8471 60.7972 26.6941 58.5074 23.4814 54.7201C28.5051 61.2412 35.9665 65.3768 44.2986 65.3768C49.4267 65.3768 54.224 63.8096 58.3247 61.0932C65.4902 54.6852 70.0001 45.3693 70.0001 34.9999C70.0001 24.6305 65.4902 15.3146 58.3247 8.90663C54.224 6.1815 49.4267 4.62305 44.2986 4.62305C35.9665 4.62305 28.4964 8.75862 23.4814 15.2798Z" fill="url(#paint1_linear_411_11494)"/>
<defs>
<linearGradient id="paint0_linear_411_11494" x1="29.1667" y1="1.14055" x2="29.1667" y2="68.9813" gradientUnits="userSpaceOnUse">
<stop offset="0.3" stop-color="#FF1B2D"/>
<stop offset="0.44" stop-color="#FA192B"/>
<stop offset="0.59" stop-color="#EC1527"/>
<stop offset="0.76" stop-color="#D60E21"/>
<stop offset="0.93" stop-color="#B60418"/>
<stop offset="1" stop-color="#A70014"/>
</linearGradient>
<linearGradient id="paint1_linear_411_11494" x1="46.7364" y1="5.13673" x2="46.7364" y2="65.1417" gradientUnits="userSpaceOnUse">
<stop stop-color="#9C0000"/>
<stop offset="0.7" stop-color="#FF4B4B"/>
</linearGradient>
</defs>
</svg>
